<svg xmlns="http://www.w3.org/2000/svg" width="24" height="28" viewBox="-12.124 -14 24.249 28">
  <style>
    .acidanthera-mark-hex { fill: #ecedee; }
    .acidanthera-mark-dot { fill: #e8683a; }
    @media (prefers-color-scheme: light) {
      .acidanthera-mark-hex { fill: #26251e; }
      .acidanthera-mark-dot { fill: #f54e00; }
    }
  </style>
  <path class="acidanthera-mark-hex" fill-rule="evenodd" d="M0 -14 L12.124 -7 L12.124 7 L0 14 L-12.124 7 L-12.124 -7 Z M0 -11.2 A8.018 8.018 0 0 0 9.699 -5.6 A8.018 8.018 0 0 0 9.699 5.6 A8.018 8.018 0 0 0 0 11.2 A8.018 8.018 0 0 0 -9.699 5.6 A8.018 8.018 0 0 0 -9.699 -5.6 A8.018 8.018 0 0 0 0 -11.2 Z" />
  <circle class="acidanthera-mark-dot" cx="0" cy="0" r="2.52" />
</svg>
