<svg xmlns="http://www.w3.org/2000/svg" viewBox="0 0 127.5 28">
  <g transform="translate(12.124 14)">
    <path d="M0 -14 L12.124 -7 L12.124 7 L0 14 L-12.124 7 L-12.124 -7 Z M0 -11.2 A8.018 8.018 0 0 0 9.699 -5.6 A8.018 8.018 0 0 0 9.699 5.6 A8.018 8.018 0 0 0 0 11.2 A8.018 8.018 0 0 0 -9.699 5.6 A8.018 8.018 0 0 0 -9.699 -5.6 A8.018 8.018 0 0 0 0 -11.2 Z" fill="#ecedee" fill-rule="evenodd" />
    <circle cx="0" cy="0" r="2.52" fill="#e8683a" />
  </g>
  <g transform="translate(32.619 19.77) scale(0.01754)" fill="#ecedee">
    <path d="M223.8 12Q141.2 12 91.4 -26.2Q41.6 -64.4 41.6 -132.8Q41.6 -201.6 83.1 -240.5Q124.6 -279.4 211.8 -296L394.6 -330.8Q394.6 -392.8 365.8 -423.6Q337 -454.4 280.2 -454.4Q229.4 -454.4 200.1 -431.5Q170.8 -408.6 160.2 -365.4L50.6 -372.2Q65.8 -451.8 125.6 -497.9Q185.4 -544 280.2 -544Q388.2 -544 444.4 -486.6Q500.6 -429.2 500.6 -325.2V-118.4Q500.6 -98.8 507.5 -91.2Q514.4 -83.6 529.4 -83.6H548.4V0Q543.4 1.4 532.2 2.3Q521 3.2 509.2 3.2Q474.6 3.2 450.4 -8Q426.2 -19.2 414 -44.5Q401.8 -69.8 401.8 -112.8L412.6 -108Q404.8 -73.4 378.2 -46Q351.6 -18.6 311.5 -3.3Q271.4 12 223.8 12ZM241 -71.6Q288.8 -71.6 323.1 -90.2Q357.4 -108.8 376 -141.7Q394.6 -174.6 394.6 -216.8V-250.8L239.4 -220.8Q191.2 -211.6 171.5 -192.5Q151.8 -173.4 151.8 -142.8Q151.8 -109 175.4 -90.3Q199 -71.6 241 -71.6ZM832.4 12Q755.6 12 698.9 -22.2Q642.2 -56.4 610.9 -119.1Q579.6 -181.8 579.6 -266Q579.6 -350.2 610.9 -412.4Q642.2 -474.6 698.9 -509.3Q755.6 -544 832.4 -544Q896.8 -544 947.2 -521.3Q997.6 -498.6 1029.3 -455.7Q1061 -412.8 1069.6 -351.4L959.4 -345Q951 -397 916.8 -424.5Q882.6 -452 832.4 -452Q765 -452 727.4 -402.6Q689.8 -353.2 689.8 -266Q689.8 -178.6 727.4 -129.2Q765 -79.8 832.4 -79.8Q882.8 -79.8 917.1 -108.5Q951.4 -137.2 959.4 -195.4L1069.6 -189.4Q1061.2 -128 1029.7 -82.8Q998.2 -37.6 947.8 -12.8Q897.4 12 832.4 12ZM1146.2 0V-532H1252.2V0ZM1144 -609.2V-714.8H1254.4V-609.2ZM1561.2 12Q1492.6 12 1442.5 -22.1Q1392.4 -56.2 1365.5 -118.5Q1338.6 -180.8 1338.6 -266Q1338.6 -351.2 1365.6 -413.5Q1392.6 -475.8 1442.8 -509.9Q1493 -544 1561.2 -544Q1615.6 -544 1658.8 -521.2Q1702 -498.4 1723.8 -457.2V-710H1829.8V0H1731.2L1728.2 -79.6Q1706.2 -36.6 1661.7 -12.3Q1617.2 12 1561.2 12ZM1589 -79.8Q1632.4 -79.8 1662.4 -102Q1692.4 -124.2 1708.1 -166.1Q1723.8 -208 1723.8 -266Q1723.8 -325.6 1708.1 -367.1Q1692.4 -408.6 1662.4 -430.4Q1632.4 -452.2 1589 -452.2Q1524.8 -452.2 1486.8 -402.5Q1448.8 -352.8 1448.8 -266Q1448.8 -180.4 1486.9 -130.1Q1525 -79.8 1589 -79.8ZM2098.8 12Q2016.2 12 1966.4 -26.2Q1916.6 -64.4 1916.6 -132.8Q1916.6 -201.6 1958.1 -240.5Q1999.6 -279.4 2086.8 -296L2269.6 -330.8Q2269.6 -392.8 2240.8 -423.6Q2212 -454.4 2155.2 -454.4Q2104.4 -454.4 2075.1 -431.5Q2045.8 -408.6 2035.2 -365.4L1925.6 -372.2Q1940.8 -451.8 2000.6 -497.9Q2060.4 -544 2155.2 -544Q2263.2 -544 2319.4 -486.6Q2375.6 -429.2 2375.6 -325.2V-118.4Q2375.6 -98.8 2382.5 -91.2Q2389.4 -83.6 2404.4 -83.6H2423.4V0Q2418.4 1.4 2407.2 2.3Q2396 3.2 2384.2 3.2Q2349.6 3.2 2325.4 -8Q2301.2 -19.2 2289 -44.5Q2276.8 -69.8 2276.8 -112.8L2287.6 -108Q2279.8 -73.4 2253.2 -46Q2226.6 -18.6 2186.5 -3.3Q2146.4 12 2098.8 12ZM2116 -71.6Q2163.8 -71.6 2198.1 -90.2Q2232.4 -108.8 2251 -141.7Q2269.6 -174.6 2269.6 -216.8V-250.8L2114.4 -220.8Q2066.2 -211.6 2046.5 -192.5Q2026.8 -173.4 2026.8 -142.8Q2026.8 -109 2050.4 -90.3Q2074 -71.6 2116 -71.6ZM2492.2 0V-532H2588.6L2592.6 -389.6L2579.8 -397.2Q2589 -448.6 2613.9 -480.9Q2638.8 -513.2 2674.7 -528.6Q2710.6 -544 2752.6 -544Q2812.6 -544 2852.5 -517.6Q2892.4 -491.2 2912.6 -445.7Q2932.8 -400.2 2932.8 -342.2V0H2826.8V-309.6Q2826.8 -356.6 2816.7 -388.9Q2806.6 -421.2 2783.9 -438.1Q2761.2 -455 2724 -455Q2667.8 -455 2633 -417.8Q2598.2 -380.6 2598.2 -309.6V0ZM3228.8 0Q3153 0 3117 -34.9Q3081 -69.8 3081 -144.4V-656.6H3187V-151.6Q3187 -114.8 3203.1 -100.7Q3219.2 -86.6 3252.4 -86.6H3328V0ZM3000.2 -445.4V-532H3328V-445.4ZM3401.2 0V-710H3507.2V-412.4L3494 -413.6Q3503.2 -458.6 3527.1 -487.3Q3551 -516 3586.1 -530Q3621.2 -544 3663.2 -544Q3721.2 -544 3761 -518.4Q3800.8 -492.8 3821.3 -447.1Q3841.8 -401.4 3841.8 -342.2V0H3735.8V-314.4Q3735.8 -385.6 3711.2 -420.3Q3686.6 -455 3634.8 -455Q3576.8 -455 3542 -418.6Q3507.2 -382.2 3507.2 -312.4V0ZM4178.8 12Q4101.4 12 4044.8 -22.2Q3988.2 -56.4 3957.4 -119.1Q3926.6 -181.8 3926.6 -266Q3926.6 -350.2 3957.4 -412.4Q3988.2 -474.6 4044 -509.3Q4099.8 -544 4175.6 -544Q4248.2 -544 4303.3 -510.7Q4358.4 -477.4 4388.8 -414.4Q4419.2 -351.4 4419.2 -262V-235.2H4037Q4041.4 -157.4 4078.9 -118.3Q4116.4 -79.2 4179.6 -79.2Q4227 -79.2 4257.9 -101Q4288.8 -122.8 4301 -160.4L4411.4 -152.8Q4390.2 -78.6 4328.6 -33.3Q4267 12 4178.8 12ZM4037 -315.2H4306.8Q4301.8 -386.2 4266.2 -419.9Q4230.6 -453.6 4175.6 -453.6Q4119.4 -453.6 4082.9 -418.4Q4046.4 -383.2 4037 -315.2ZM4506.2 0V-532H4603L4607.4 -390.8L4598.2 -393.6Q4609.2 -466 4642.6 -499Q4676 -532 4732.8 -532H4783.6V-437.2H4733.2Q4692.6 -437.2 4665.9 -423.9Q4639.2 -410.6 4625.7 -383.6Q4612.2 -356.6 4612.2 -313.8V0ZM4990.8 12Q4908.2 12 4858.4 -26.2Q4808.6 -64.4 4808.6 -132.8Q4808.6 -201.6 4850.1 -240.5Q4891.6 -279.4 4978.8 -296L5161.6 -330.8Q5161.6 -392.8 5132.8 -423.6Q5104 -454.4 5047.2 -454.4Q4996.4 -454.4 4967.1 -431.5Q4937.8 -408.6 4927.2 -365.4L4817.6 -372.2Q4832.8 -451.8 4892.6 -497.9Q4952.4 -544 5047.2 -544Q5155.2 -544 5211.4 -486.6Q5267.6 -429.2 5267.6 -325.2V-118.4Q5267.6 -98.8 5274.5 -91.2Q5281.4 -83.6 5296.4 -83.6H5315.4V0Q5310.4 1.4 5299.2 2.3Q5288 3.2 5276.2 3.2Q5241.6 3.2 5217.4 -8Q5193.2 -19.2 5181 -44.5Q5168.8 -69.8 5168.8 -112.8L5179.6 -108Q5171.8 -73.4 5145.2 -46Q5118.6 -18.6 5078.5 -3.3Q5038.4 12 4990.8 12ZM5008 -71.6Q5055.8 -71.6 5090.1 -90.2Q5124.4 -108.8 5143 -141.7Q5161.6 -174.6 5161.6 -216.8V-250.8L5006.4 -220.8Q4958.2 -211.6 4938.5 -192.5Q4918.8 -173.4 4918.8 -142.8Q4918.8 -109 4942.4 -90.3Q4966 -71.6 5008 -71.6Z" />
  </g>
</svg>
